# xmcd
#
# Track frame offsets: 
#        150
#        24009
#        40021
#        56848
#        70601
#        95980
#        114194
#        139798
#        158700
#
# Disc length: 2334 seconds
#
# Revision: 0
# Processed by: cddbd v1.5.2PL0 Copyright (c) Steve Scherf et al.
# Submitted via: ExactAudioCopy v1.3
#
DISCID=6c091c09
DTITLE=Seth Rosenbloom - Keep On Turning
DYEAR=2019
DGENRE=Blues Rock
TTITLE0=Keep On Turning
TTITLE1=Crawling Back
TTITLE2=I Can't Help It
TTITLE3=Heartbreaker
TTITLE4=Right About Now
TTITLE5=Look Over Yonders Wall
TTITLE6=Broke And Lonely
TTITLE7=Come Back Around
TTITLE8=Palace Of The King
EXTD=
EXTT0=
EXTT1=
EXTT2=
EXTT3=
EXTT4=
EXTT5=
EXTT6=
EXTT7=
EXTT8=
PLAYORDER=
